<svg width="28" height="30" viewBox="0 0 28 30" xmlns="http://www.w3.org/2000/svg"><title>ic_route</title><g fill="none" fill-rule="evenodd"><path d="M20.742 26.704H5.595c-2.74 0-4.962-2.222-4.962-4.963 0-2.74 2.22-4.963 4.962-4.963h16.5c2.74 0 4.963-2.222 4.963-4.963 0-2.74-2.222-4.962-4.964-4.962H6.948" stroke="#4A4A4A" stroke-width=".8" stroke-linecap="round" stroke-linejoin="round"/><path d="M23.365 26.704l-.166-.25c-.478-.74-.93-1.493-1.323-2.28-.19-.38-.36-.765-.478-1.174-.132-.45-.086-.886.105-1.306.248-.545.66-.918 1.23-1.104.562-.183 1.11-.128 1.63.16.454.255.768.634.937 1.13.126.365.142.736.035 1.113-.156.537-.398 1.036-.66 1.527-.385.73-.815 1.44-1.273 2.13-.01.016-.022.03-.04.054" fill="#FFF"/><path d="M23.365 26.704l-.166-.25c-.478-.74-.93-1.493-1.323-2.28-.19-.38-.36-.765-.478-1.174-.132-.45-.086-.886.105-1.306.248-.545.66-.918 1.23-1.104.562-.183 1.11-.128 1.63.16.454.255.768.634.937 1.13.126.365.142.736.035 1.113-.156.537-.398 1.036-.66 1.527-.385.73-.815 1.44-1.273 2.13-.01.016-.022.03-.04.054z" stroke="#4A4A4A" stroke-width=".8" stroke-linecap="round" stroke-linejoin="round"/><path d="M24.07 22.562c0 .39-.315.704-.703.704-.39 0-.706-.314-.706-.704 0-.388.318-.704.707-.704.388 0 .704.316.704.704" fill="#4A4A4A"/><path d="M4.385 6.85c-.058-.087-.114-.168-.166-.25-.48-.74-.93-1.492-1.322-2.278-.19-.38-.362-.766-.48-1.175-.13-.45-.086-.886.107-1.307.248-.545.662-.916 1.23-1.102.562-.183 1.112-.13 1.63.16.454.255.767.634.937 1.128.125.366.143.737.034 1.113-.155.538-.397 1.037-.657 1.526-.388.733-.818 1.44-1.275 2.13-.01.017-.023.032-.04.055" fill="#FFF"/><path d="M4.385 6.85c-.058-.087-.114-.168-.166-.25-.48-.74-.93-1.492-1.322-2.278-.19-.38-.362-.766-.48-1.175-.13-.45-.086-.886.107-1.307.248-.545.662-.916 1.23-1.102.562-.183 1.112-.13 1.63.16.454.255.767.634.937 1.128.125.366.143.737.034 1.113-.155.538-.397 1.037-.657 1.526-.388.733-.818 1.44-1.275 2.13-.01.017-.023.032-.04.055z" stroke="#4A4A4A" stroke-width=".8" stroke-linecap="round" stroke-linejoin="round"/><path d="M5.09 2.71c0 .388-.314.704-.704.704-.39 0-.705-.316-.705-.704 0-.39.317-.705.706-.705.39 0 .704.315.704.705" fill="#4A4A4A"/><path d="M17.717 6.85c0 1.19-.964 2.155-2.153 2.155-1.188 0-2.155-.965-2.155-2.154 0-1.188.966-2.152 2.154-2.152 1.19 0 2.153.964 2.153 2.153" fill="#FFF"/><path d="M17.717 6.85c0 1.19-.964 2.155-2.153 2.155-1.188 0-2.155-.965-2.155-2.154 0-1.188.966-2.152 2.154-2.152 1.19 0 2.153.964 2.153 2.153z" stroke="#4A4A4A" stroke-width=".8" stroke-linecap="round" stroke-linejoin="round"/><path d="M9.803 16.778c0 1.19-.963 2.153-2.152 2.153-1.19 0-2.154-.963-2.154-2.152 0-1.19.965-2.154 2.155-2.154s2.153.965 2.153 2.154" fill="#FFF"/><path d="M9.803 16.778c0 1.19-.963 2.153-2.152 2.153-1.19 0-2.154-.963-2.154-2.152 0-1.19.965-2.154 2.155-2.154s2.153.965 2.153 2.154z" stroke="#4A4A4A" stroke-width=".8" stroke-linecap="round" stroke-linejoin="round"/><path d="M17.717 26.704c0 1.19-.964 2.153-2.153 2.153-1.188 0-2.155-.964-2.155-2.153 0-1.19.966-2.154 2.154-2.154 1.19 0 2.153.965 2.153 2.154" fill="#FFF"/><path d="M17.717 26.704c0 1.19-.964 2.153-2.153 2.153-1.188 0-2.155-.964-2.155-2.153 0-1.19.966-2.154 2.154-2.154 1.19 0 2.153.965 2.153 2.154z" stroke="#4A4A4A" stroke-width=".8" stroke-linecap="round" stroke-linejoin="round"/></g></svg>