<svg width="29" height="29" viewBox="0 0 29 29" xmlns="http://www.w3.org/2000/svg" xmlns:xlink="http://www.w3.org/1999/xlink"><title>ic_nopeak</title><defs><path d="M14.5 29C6.492 29 0 22.508 0 14.5 0 6.49 6.492 0 14.5 0 22.51 0 29 6.49 29 14.5 29 22.508 22.51 29 14.5 29z" id="a"/></defs><g fill="none" fill-rule="evenodd"><g><use fill="#FFF" xlink:href="#a"/><path stroke="#4A4A4A" stroke-width=".8" d="M14.5 28.6c7.787 0 14.1-6.313 14.1-14.1C28.6 6.712 22.288.4 14.5.4 6.713.4.4 6.713.4 14.5s6.313 14.1 14.1 14.1z"/></g><path fill-opacity=".6" fill="#8F8F8F" d="M14.652 6.214l7.098 6.26v3.457l-5.702-5.16v10.98h-2.913V10.77L7.25 15.93l.023-3.293"/><path d="M23.683 4.35L5.317 24.65" stroke="#4A4A4A" stroke-linecap="square"/></g></svg>